<?xml version="1.0" standalone="no"?>
<!DOCTYPE svg PUBLIC "-//W3C//DTD SVG 20010904//EN"
 "http://www.w3.org/TR/2001/REC-SVG-20010904/DTD/svg10.dtd">
<svg version="1.0" xmlns="http://www.w3.org/2000/svg"
 width="271.000000pt" height="271.000000pt" viewBox="0 0 271.000000 271.000000"
 preserveAspectRatio="xMidYMid meet">
<metadata>
Created by potrace 1.16, written by Peter Selinger 2001-2019
</metadata>
<g transform="translate(0.000000,271.000000) scale(0.100000,-0.100000)"
fill="#000000" stroke="none">
<path d="M1041 2013 c-22 -19 -76 -151 -117 -287 -33 -108 -42 -258 -20 -349
37 -157 135 -280 281 -351 207 -101 371 -108 541 -25 112 55 252 219 304 356
13 32 36 92 51 133 34 89 37 130 9 155 -40 36 -119 8 -136 -49 -42 -136 -128
-307 -186 -365 -135 -138 -359 -163 -524 -58 -63 39 -113 97 -152 177 -36 73
-37 77 -36 185 1 104 3 116 44 225 23 63 48 132 56 152 31 85 -49 155 -115
101z"/>
</g>
</svg>
